<mxfile host="app.diagrams.net" modified="2023-08-10T11:26:46.931Z" agent="Mozilla/5.0 (Windows NT 10.0; Win64; x64) AppleWebKit/537.36 (KHTML, like Gecko) Chrome/115.0.0.0 Safari/537.36" etag="BDOmRKFsHqh5dtKMu4UU" version="21.6.7" type="github">
  <diagram name="Página-1" id="Y9edGubF6Y6BSuaRHTRf">
    <mxGraphModel dx="1434" dy="725" grid="1" gridSize="10" guides="1" tooltips="1" connect="1" arrows="1" fold="1" page="1" pageScale="1" pageWidth="827" pageHeight="1169" math="0" shadow="0">
      <root>
        <mxCell id="0" />
        <mxCell id="1" parent="0" />
        <mxCell id="-fd_wkGw-r7UDn4tYPge-1" style="edgeStyle=orthogonalEdgeStyle;rounded=0;orthogonalLoop=1;jettySize=auto;html=1;endArrow=diamond;endFill=1;" edge="1" parent="1" source="-fd_wkGw-r7UDn4tYPge-2" target="-fd_wkGw-r7UDn4tYPge-13">
          <mxGeometry relative="1" as="geometry">
            <mxPoint x="270" y="224" as="targetPoint" />
            <Array as="points" />
          </mxGeometry>
        </mxCell>
        <mxCell id="-fd_wkGw-r7UDn4tYPge-29" value="Assegura &amp;gt;" style="edgeLabel;html=1;align=center;verticalAlign=middle;resizable=0;points=[];" vertex="1" connectable="0" parent="-fd_wkGw-r7UDn4tYPge-1">
          <mxGeometry x="-0.0615" y="2" relative="1" as="geometry">
            <mxPoint as="offset" />
          </mxGeometry>
        </mxCell>
        <mxCell id="-fd_wkGw-r7UDn4tYPge-32" value="1" style="edgeLabel;html=1;align=center;verticalAlign=middle;resizable=0;points=[];" vertex="1" connectable="0" parent="-fd_wkGw-r7UDn4tYPge-1">
          <mxGeometry x="0.8385" relative="1" as="geometry">
            <mxPoint as="offset" />
          </mxGeometry>
        </mxCell>
        <mxCell id="-fd_wkGw-r7UDn4tYPge-33" value="1" style="edgeLabel;html=1;align=center;verticalAlign=middle;resizable=0;points=[];" vertex="1" connectable="0" parent="-fd_wkGw-r7UDn4tYPge-1">
          <mxGeometry x="-0.8769" y="-2" relative="1" as="geometry">
            <mxPoint as="offset" />
          </mxGeometry>
        </mxCell>
        <mxCell id="-fd_wkGw-r7UDn4tYPge-2" value="Veiculo" style="swimlane;fontStyle=1;align=center;verticalAlign=top;childLayout=stackLayout;horizontal=1;startSize=26;horizontalStack=0;resizeParent=1;resizeParentMax=0;resizeLast=0;collapsible=1;marginBottom=0;whiteSpace=wrap;html=1;" vertex="1" parent="1">
          <mxGeometry x="520" y="244" width="160" height="138" as="geometry" />
        </mxCell>
        <mxCell id="-fd_wkGw-r7UDn4tYPge-3" value="+ placa: string" style="text;strokeColor=none;fillColor=none;align=left;verticalAlign=top;spacingLeft=4;spacingRight=4;overflow=hidden;rotatable=0;points=[[0,0.5],[1,0.5]];portConstraint=eastwest;whiteSpace=wrap;html=1;" vertex="1" parent="-fd_wkGw-r7UDn4tYPge-2">
          <mxGeometry y="26" width="160" height="26" as="geometry" />
        </mxCell>
        <mxCell id="-fd_wkGw-r7UDn4tYPge-4" value="+ marca: string" style="text;strokeColor=none;fillColor=none;align=left;verticalAlign=top;spacingLeft=4;spacingRight=4;overflow=hidden;rotatable=0;points=[[0,0.5],[1,0.5]];portConstraint=eastwest;whiteSpace=wrap;html=1;" vertex="1" parent="-fd_wkGw-r7UDn4tYPge-2">
          <mxGeometry y="52" width="160" height="26" as="geometry" />
        </mxCell>
        <mxCell id="-fd_wkGw-r7UDn4tYPge-5" value="+ cor: string" style="text;strokeColor=none;fillColor=none;align=left;verticalAlign=top;spacingLeft=4;spacingRight=4;overflow=hidden;rotatable=0;points=[[0,0.5],[1,0.5]];portConstraint=eastwest;whiteSpace=wrap;html=1;" vertex="1" parent="-fd_wkGw-r7UDn4tYPge-2">
          <mxGeometry y="78" width="160" height="26" as="geometry" />
        </mxCell>
        <mxCell id="-fd_wkGw-r7UDn4tYPge-6" value="+ ano: date" style="text;strokeColor=none;fillColor=none;align=left;verticalAlign=top;spacingLeft=4;spacingRight=4;overflow=hidden;rotatable=0;points=[[0,0.5],[1,0.5]];portConstraint=eastwest;whiteSpace=wrap;html=1;" vertex="1" parent="-fd_wkGw-r7UDn4tYPge-2">
          <mxGeometry y="104" width="160" height="26" as="geometry" />
        </mxCell>
        <mxCell id="-fd_wkGw-r7UDn4tYPge-7" value="" style="line;strokeWidth=1;fillColor=none;align=left;verticalAlign=middle;spacingTop=-1;spacingLeft=3;spacingRight=3;rotatable=0;labelPosition=right;points=[];portConstraint=eastwest;strokeColor=inherit;" vertex="1" parent="-fd_wkGw-r7UDn4tYPge-2">
          <mxGeometry y="130" width="160" height="8" as="geometry" />
        </mxCell>
        <mxCell id="-fd_wkGw-r7UDn4tYPge-8" style="edgeStyle=orthogonalEdgeStyle;rounded=0;orthogonalLoop=1;jettySize=auto;html=1;endArrow=diamond;endFill=1;startArrow=none;startFill=0;" edge="1" parent="1" source="-fd_wkGw-r7UDn4tYPge-9" target="-fd_wkGw-r7UDn4tYPge-13">
          <mxGeometry relative="1" as="geometry">
            <mxPoint x="330" y="226" as="targetPoint" />
            <Array as="points">
              <mxPoint x="360" y="226" />
              <mxPoint x="220" y="226" />
            </Array>
            <mxPoint x="300" y="140" as="sourcePoint" />
          </mxGeometry>
        </mxCell>
        <mxCell id="-fd_wkGw-r7UDn4tYPge-26" value="Assegurados &amp;gt;" style="edgeLabel;html=1;align=center;verticalAlign=middle;resizable=0;points=[];" vertex="1" connectable="0" parent="-fd_wkGw-r7UDn4tYPge-8">
          <mxGeometry x="0.1088" y="-2" relative="1" as="geometry">
            <mxPoint as="offset" />
          </mxGeometry>
        </mxCell>
        <mxCell id="-fd_wkGw-r7UDn4tYPge-27" value="1..*" style="edgeLabel;html=1;align=center;verticalAlign=middle;resizable=0;points=[];" vertex="1" connectable="0" parent="-fd_wkGw-r7UDn4tYPge-8">
          <mxGeometry x="-0.8844" relative="1" as="geometry">
            <mxPoint as="offset" />
          </mxGeometry>
        </mxCell>
        <mxCell id="-fd_wkGw-r7UDn4tYPge-30" value="1" style="edgeLabel;html=1;align=center;verticalAlign=middle;resizable=0;points=[];" vertex="1" connectable="0" parent="-fd_wkGw-r7UDn4tYPge-8">
          <mxGeometry x="0.8912" relative="1" as="geometry">
            <mxPoint as="offset" />
          </mxGeometry>
        </mxCell>
        <mxCell id="-fd_wkGw-r7UDn4tYPge-9" value="Cliente" style="swimlane;fontStyle=1;align=center;verticalAlign=top;childLayout=stackLayout;horizontal=1;startSize=26;horizontalStack=0;resizeParent=1;resizeParentMax=0;resizeLast=0;collapsible=1;marginBottom=0;whiteSpace=wrap;html=1;" vertex="1" parent="1">
          <mxGeometry x="220" y="30" width="160" height="86" as="geometry" />
        </mxCell>
        <mxCell id="-fd_wkGw-r7UDn4tYPge-10" value="+ nome: string&lt;br&gt;" style="text;strokeColor=none;fillColor=none;align=left;verticalAlign=top;spacingLeft=4;spacingRight=4;overflow=hidden;rotatable=0;points=[[0,0.5],[1,0.5]];portConstraint=eastwest;whiteSpace=wrap;html=1;" vertex="1" parent="-fd_wkGw-r7UDn4tYPge-9">
          <mxGeometry y="26" width="160" height="26" as="geometry" />
        </mxCell>
        <mxCell id="-fd_wkGw-r7UDn4tYPge-11" value="+ cpf: string" style="text;strokeColor=none;fillColor=none;align=left;verticalAlign=top;spacingLeft=4;spacingRight=4;overflow=hidden;rotatable=0;points=[[0,0.5],[1,0.5]];portConstraint=eastwest;whiteSpace=wrap;html=1;" vertex="1" parent="-fd_wkGw-r7UDn4tYPge-9">
          <mxGeometry y="52" width="160" height="26" as="geometry" />
        </mxCell>
        <mxCell id="-fd_wkGw-r7UDn4tYPge-12" value="" style="line;strokeWidth=1;fillColor=none;align=left;verticalAlign=middle;spacingTop=-1;spacingLeft=3;spacingRight=3;rotatable=0;labelPosition=right;points=[];portConstraint=eastwest;strokeColor=inherit;" vertex="1" parent="-fd_wkGw-r7UDn4tYPge-9">
          <mxGeometry y="78" width="160" height="8" as="geometry" />
        </mxCell>
        <mxCell id="-fd_wkGw-r7UDn4tYPge-13" value="Seguro" style="swimlane;fontStyle=1;align=center;verticalAlign=top;childLayout=stackLayout;horizontal=1;startSize=26;horizontalStack=0;resizeParent=1;resizeParentMax=0;resizeLast=0;collapsible=1;marginBottom=0;whiteSpace=wrap;html=1;" vertex="1" parent="1">
          <mxGeometry x="100" y="270" width="160" height="86" as="geometry" />
        </mxCell>
        <mxCell id="-fd_wkGw-r7UDn4tYPge-16" value="+ valor: float .2" style="text;strokeColor=none;fillColor=none;align=left;verticalAlign=top;spacingLeft=4;spacingRight=4;overflow=hidden;rotatable=0;points=[[0,0.5],[1,0.5]];portConstraint=eastwest;whiteSpace=wrap;html=1;" vertex="1" parent="-fd_wkGw-r7UDn4tYPge-13">
          <mxGeometry y="26" width="160" height="26" as="geometry" />
        </mxCell>
        <mxCell id="-fd_wkGw-r7UDn4tYPge-17" value="+ vigência: date" style="text;strokeColor=none;fillColor=none;align=left;verticalAlign=top;spacingLeft=4;spacingRight=4;overflow=hidden;rotatable=0;points=[[0,0.5],[1,0.5]];portConstraint=eastwest;whiteSpace=wrap;html=1;" vertex="1" parent="-fd_wkGw-r7UDn4tYPge-13">
          <mxGeometry y="52" width="160" height="26" as="geometry" />
        </mxCell>
        <mxCell id="-fd_wkGw-r7UDn4tYPge-18" value="" style="line;strokeWidth=1;fillColor=none;align=left;verticalAlign=middle;spacingTop=-1;spacingLeft=3;spacingRight=3;rotatable=0;labelPosition=right;points=[];portConstraint=eastwest;strokeColor=inherit;" vertex="1" parent="-fd_wkGw-r7UDn4tYPge-13">
          <mxGeometry y="78" width="160" height="8" as="geometry" />
        </mxCell>
        <mxCell id="-fd_wkGw-r7UDn4tYPge-19" style="edgeStyle=orthogonalEdgeStyle;rounded=0;orthogonalLoop=1;jettySize=auto;html=1;endArrow=diamond;endFill=1;" edge="1" parent="1" source="-fd_wkGw-r7UDn4tYPge-20" target="-fd_wkGw-r7UDn4tYPge-2">
          <mxGeometry relative="1" as="geometry">
            <mxPoint x="970" y="320" as="sourcePoint" />
            <Array as="points">
              <mxPoint x="900" y="313" />
              <mxPoint x="900" y="313" />
            </Array>
          </mxGeometry>
        </mxCell>
        <mxCell id="-fd_wkGw-r7UDn4tYPge-34" value="1" style="edgeLabel;html=1;align=center;verticalAlign=middle;resizable=0;points=[];" vertex="1" connectable="0" parent="-fd_wkGw-r7UDn4tYPge-19">
          <mxGeometry x="0.5897" y="1" relative="1" as="geometry">
            <mxPoint as="offset" />
          </mxGeometry>
        </mxCell>
        <mxCell id="-fd_wkGw-r7UDn4tYPge-35" value="1" style="edgeLabel;html=1;align=center;verticalAlign=middle;resizable=0;points=[];" vertex="1" connectable="0" parent="-fd_wkGw-r7UDn4tYPge-19">
          <mxGeometry x="-0.7179" y="4" relative="1" as="geometry">
            <mxPoint as="offset" />
          </mxGeometry>
        </mxCell>
        <mxCell id="-fd_wkGw-r7UDn4tYPge-36" value="Possui &amp;gt;" style="edgeLabel;html=1;align=center;verticalAlign=middle;resizable=0;points=[];" vertex="1" connectable="0" parent="-fd_wkGw-r7UDn4tYPge-19">
          <mxGeometry x="-0.0256" y="2" relative="1" as="geometry">
            <mxPoint as="offset" />
          </mxGeometry>
        </mxCell>
        <mxCell id="-fd_wkGw-r7UDn4tYPge-20" value="Modelo&lt;br&gt;" style="swimlane;fontStyle=1;align=center;verticalAlign=top;childLayout=stackLayout;horizontal=1;startSize=26;horizontalStack=0;resizeParent=1;resizeParentMax=0;resizeLast=0;collapsible=1;marginBottom=0;whiteSpace=wrap;html=1;" vertex="1" parent="1">
          <mxGeometry x="900" y="283" width="160" height="60" as="geometry" />
        </mxCell>
        <mxCell id="-fd_wkGw-r7UDn4tYPge-21" value="+ modelo: string" style="text;strokeColor=none;fillColor=none;align=left;verticalAlign=top;spacingLeft=4;spacingRight=4;overflow=hidden;rotatable=0;points=[[0,0.5],[1,0.5]];portConstraint=eastwest;whiteSpace=wrap;html=1;" vertex="1" parent="-fd_wkGw-r7UDn4tYPge-20">
          <mxGeometry y="26" width="160" height="26" as="geometry" />
        </mxCell>
        <mxCell id="-fd_wkGw-r7UDn4tYPge-22" value="" style="line;strokeWidth=1;fillColor=none;align=left;verticalAlign=middle;spacingTop=-1;spacingLeft=3;spacingRight=3;rotatable=0;labelPosition=right;points=[];portConstraint=eastwest;strokeColor=inherit;" vertex="1" parent="-fd_wkGw-r7UDn4tYPge-20">
          <mxGeometry y="52" width="160" height="8" as="geometry" />
        </mxCell>
        <mxCell id="-fd_wkGw-r7UDn4tYPge-24" style="edgeStyle=orthogonalEdgeStyle;rounded=0;orthogonalLoop=1;jettySize=auto;html=1;endArrow=diamond;endFill=1;startArrow=none;startFill=0;" edge="1" parent="1" source="-fd_wkGw-r7UDn4tYPge-9" target="-fd_wkGw-r7UDn4tYPge-13">
          <mxGeometry relative="1" as="geometry">
            <mxPoint x="100" y="257" as="targetPoint" />
            <Array as="points">
              <mxPoint x="260" y="193" />
              <mxPoint x="180" y="193" />
            </Array>
            <mxPoint x="180" y="103" as="sourcePoint" />
          </mxGeometry>
        </mxCell>
        <mxCell id="-fd_wkGw-r7UDn4tYPge-25" value="Proprietario &amp;gt;" style="edgeLabel;html=1;align=center;verticalAlign=middle;resizable=0;points=[];" vertex="1" connectable="0" parent="-fd_wkGw-r7UDn4tYPge-24">
          <mxGeometry x="0.188" y="-1" relative="1" as="geometry">
            <mxPoint as="offset" />
          </mxGeometry>
        </mxCell>
        <mxCell id="-fd_wkGw-r7UDn4tYPge-28" value="1" style="edgeLabel;html=1;align=center;verticalAlign=middle;resizable=0;points=[];" vertex="1" connectable="0" parent="-fd_wkGw-r7UDn4tYPge-24">
          <mxGeometry x="-0.8974" y="-1" relative="1" as="geometry">
            <mxPoint as="offset" />
          </mxGeometry>
        </mxCell>
        <mxCell id="-fd_wkGw-r7UDn4tYPge-31" value="1" style="edgeLabel;html=1;align=center;verticalAlign=middle;resizable=0;points=[];" vertex="1" connectable="0" parent="-fd_wkGw-r7UDn4tYPge-24">
          <mxGeometry x="0.8291" y="-1" relative="1" as="geometry">
            <mxPoint as="offset" />
          </mxGeometry>
        </mxCell>
      </root>
    </mxGraphModel>
  </diagram>
</mxfile>
